<?xml version="1.0" encoding="utf-8"?>
<!-- Generator: Adobe Illustrator 24.0.0, SVG Export Plug-In . SVG Version: 6.00 Build 0)  -->
<svg version="1.1" id="Layer_1" xmlns="http://www.w3.org/2000/svg" xmlns:xlink="http://www.w3.org/1999/xlink" x="0px" y="0px"
	 viewBox="0 0 24 24" style="enable-background:new 0 0 24 24;" xml:space="preserve">
<style type="text/css">
	.st0{fill:#33384D;}
</style>
<path class="st0" d="M12,22c1.3,0,2.4-0.8,2.8-2H9.2C9.6,21.2,10.7,22,12,22z M19,14.6V10c0-3.2-2.2-5.9-5.1-6.7
	C13.6,2.5,12.8,2,12,2s-1.6,0.5-1.9,1.3C7.2,4.1,5,6.8,5,10v4.6l-1.7,1.7C3.1,16.5,3,16.7,3,17v1c0,0.6,0.4,1,1,1h16
	c0.6,0,1-0.4,1-1v-1c0-0.3-0.1-0.5-0.3-0.7L19,14.6z"/>
</svg>
