<svg id="Layer_1" data-name="Layer 1" xmlns="http://www.w3.org/2000/svg" viewBox="0 0 100 70"><defs><style>.cls-1{fill:#b8abf5;}.cls-2{fill:#33384d;}.cls-3{fill:#f8f8f8;}.cls-4{fill:#909ed6;}.cls-5{fill:#ffeeab;}</style></defs><title>books</title><path class="cls-1" d="M46.37,51.44h-35a1.37,1.37,0,0,1,0-2.74h35a1.37,1.37,0,0,0,0,2.74Z"/><path class="cls-1" d="M46.37,70h-35a1.37,1.37,0,0,1,0-2.74h35a1.37,1.37,0,0,0,0,2.74Z"/><path class="cls-2" d="M83.65,55.94v6.82A7.15,7.15,0,0,1,76.6,70H46.37a1.37,1.37,0,0,1,0-2.74H76.6A4.45,4.45,0,0,0,81,62.76V55.94a4.45,4.45,0,0,0-4.38-4.5H46.37a1.37,1.37,0,0,1,0-2.74H76.6A7.15,7.15,0,0,1,83.65,55.94Z"/><path class="cls-3" d="M50.39,57.69l-1.68-4.36H14.22l1.68,4.36a4.77,4.77,0,0,1,.3,1.66h8.39a.49.49,0,0,1,0,1H16.1a.85.85,0,0,0,0,.17c0,.17-.1.34-.16.51l-2.41,6.25H48l1.35-3.5.38-1L50.39,61A4.63,4.63,0,0,0,50.39,57.69ZM42,63.76H36.14a.49.49,0,0,1,0-1H42a.49.49,0,0,1,0,1Z"/><path class="cls-4" d="M76.6,51.44H13.49l.73,1.89H48.71l1.68,4.36a4.63,4.63,0,0,1,0,3.32l-.68,1.77h7.08a.49.49,0,0,1,0,1H49.33L48,67.26H76.6A4.45,4.45,0,0,0,81,62.76V55.94A4.45,4.45,0,0,0,76.6,51.44ZM64.16,56.86H58.3a.49.49,0,0,1,0-1h5.86a.49.49,0,0,1,0,1Z"/><path class="cls-4" d="M42.47,63.27a.48.48,0,0,1-.47.49H36.14a.49.49,0,0,1,0-1H42A.48.48,0,0,1,42.47,63.27Z"/><path class="cls-3" d="M57.27,63.27a.48.48,0,0,1-.48.49H49.33l.38-1h7.08A.48.48,0,0,1,57.27,63.27Z"/><path class="cls-3" d="M64.63,56.37a.48.48,0,0,1-.47.49H58.3a.49.49,0,0,1,0-1h5.86A.48.48,0,0,1,64.63,56.37Z"/><path class="cls-4" d="M25.06,59.84a.48.48,0,0,1-.47.49H16.1a4.59,4.59,0,0,0,.1-1h8.39A.48.48,0,0,1,25.06,59.84Z"/><path class="cls-1" d="M86.5,47.33a1.35,1.35,0,0,1-1.34,1.37H56a5.19,5.19,0,0,1,0-10.38H85.16a1.38,1.38,0,0,1,0,2.75H56a2.41,2.41,0,0,0-2.38,2.44,2.55,2.55,0,0,0,.22,1A2.39,2.39,0,0,0,56,46H85.16A1.35,1.35,0,0,1,86.5,47.33Z"/><path class="cls-4" d="M84.45,41.07,83,42.75l-.06.08H55.76a2,2,0,0,0-1.92,1.72,2.55,2.55,0,0,1-.22-1A2.41,2.41,0,0,1,56,41.07Z"/><path class="cls-3" d="M83,44.27a1.17,1.17,0,0,1-.06-1.44H55.76a2,2,0,0,0-1.92,1.72A2.39,2.39,0,0,0,56,46H84.45Zm-16.22.36H60.92a.49.49,0,0,1,0-1h5.86a.49.49,0,0,1,0,1Z"/><path class="cls-4" d="M67.25,44.14a.48.48,0,0,1-.47.49H60.92a.49.49,0,0,1,0-1h5.86A.48.48,0,0,1,67.25,44.14Z"/><path class="cls-5" d="M56,48.7H20.24a5,5,0,0,1-3.57-1.52,5.23,5.23,0,0,1-1.48-3.67,5.12,5.12,0,0,1,5-5.19H56A5.19,5.19,0,0,0,56,48.7Z"/><path class="cls-1" d="M57.33,38.32H24.4a1.37,1.37,0,0,1,0-2.74H57.33a1.37,1.37,0,0,0,0,2.74Z"/><path class="cls-2" d="M86.32,31.17a7.07,7.07,0,0,1-7,7.15h-22a1.37,1.37,0,0,1,0-2.74h22a4.41,4.41,0,0,0,0-8.82h-22a1.38,1.38,0,0,1,0-2.75h22A7.08,7.08,0,0,1,86.32,31.17Z"/><path class="cls-1" d="M57.33,26.76H24.4a1.38,1.38,0,0,1,0-2.75H57.33a1.38,1.38,0,0,0,0,2.75Z"/><path class="cls-3" d="M60,31.39a3.49,3.49,0,0,1-.21.89l0,.08-1.29,3.22H25.8l1.3-3.22h4.7a.47.47,0,0,0,.47-.48.48.48,0,0,0-.47-.49H27.34a3,3,0,0,0-.21-1.33l-.46-1.14H59.33l.46,1.14A3,3,0,0,1,60,31.39Z"/><path class="cls-4" d="M79.35,26.76H25.8l.87,2.16H59.33l.46,1.14A3,3,0,0,1,60,31.39h7.56a.48.48,0,0,1,.47.49.47.47,0,0,1-.47.48H59.75l-1.29,3.22H79.35a4.41,4.41,0,0,0,0-8.82Zm0,7.35H73.52a.49.49,0,0,1,0-1h5.85a.49.49,0,0,1,0,1Z"/><path class="cls-4" d="M32.27,31.88a.47.47,0,0,1-.47.48H27.1l0-.08a3.12,3.12,0,0,0,.21-.89H31.8A.48.48,0,0,1,32.27,31.88Z"/><path class="cls-3" d="M79.85,33.62a.48.48,0,0,1-.48.49H73.52a.49.49,0,0,1,0-1h5.85A.48.48,0,0,1,79.85,33.62Z"/><path class="cls-3" d="M68,31.88a.47.47,0,0,1-.47.48H59.75l0-.08a3.49,3.49,0,0,0,.21-.89h7.56A.48.48,0,0,1,68,31.88Z"/><path class="cls-1" d="M90,22.64A1.35,1.35,0,0,1,88.66,24H67.24a7,7,0,0,1,0-14H88.66a1.37,1.37,0,0,1,0,2.74H67.24A4.22,4.22,0,0,0,63.09,17a4.58,4.58,0,0,0,0,.53h0l0,.2a.44.44,0,0,0,0,.1l0,.16.06.23c0,.07.05.14.07.22a1.8,1.8,0,0,0,.08.21,4.68,4.68,0,0,0,.37.7l.08.13a4.54,4.54,0,0,0,.39.48l.16.15.11.11.09.07a3.24,3.24,0,0,0,.31.24l.16.11.16.09.16.09a2.52,2.52,0,0,0,.34.15,4,4,0,0,0,1.5.29H88.66A1.36,1.36,0,0,1,90,22.64Z"/><path class="cls-5" d="M60.42,17a6.93,6.93,0,0,1,6.82-7H34.81A6.92,6.92,0,0,0,28,17,7.1,7.1,0,0,0,30,22,6.71,6.71,0,0,0,34.81,24H67.24A6.92,6.92,0,0,1,60.42,17ZM57.1,20.2H52.46a7.18,7.18,0,0,1,0-6.39H57.1a7.18,7.18,0,0,0,0,6.39Z"/><path class="cls-4" d="M88.66,12.74l-1.2,2.2H66.79a3.93,3.93,0,0,0-3.67,2.6,4.58,4.58,0,0,1,0-.53,4.22,4.22,0,0,1,4.15-4.27Z"/><path class="cls-3" d="M88,20.13H83.67a.48.48,0,0,1-.48-.49.47.47,0,0,1,.48-.48H87.5l-.75-1.37a1.6,1.6,0,0,1,0-1.56l.71-1.29H66.79a3.93,3.93,0,0,0-3.67,2.6h0l0,.2a.44.44,0,0,0,0,.1l0,.16.06.23c0,.07,0,.14.07.22a1.8,1.8,0,0,0,.08.21,4.68,4.68,0,0,0,.37.7l.08.13a4.54,4.54,0,0,0,.39.48l.16.15.11.11.09.07a3.24,3.24,0,0,0,.31.24l.16.11.16.09.16.09a2.52,2.52,0,0,0,.34.15,4,4,0,0,0,1.5.29H88.66ZM71.77,18.42H65.92a.49.49,0,0,1,0-1h5.85a.49.49,0,0,1,0,1Z"/><path class="cls-4" d="M72.25,17.94a.48.48,0,0,1-.48.48H65.92a.49.49,0,0,1,0-1h5.85A.48.48,0,0,1,72.25,17.94Z"/><path class="cls-4" d="M88,20.13H83.67a.48.48,0,0,1-.48-.49.47.47,0,0,1,.48-.48H87.5Z"/><path class="cls-3" d="M56.35,17a7.1,7.1,0,0,0,.75,3.19H52.46a7.18,7.18,0,0,1,0-6.39H57.1A7.14,7.14,0,0,0,56.35,17Z"/><path class="cls-5" d="M67.14,22.38V17.45h3.41v4.93a.22.22,0,0,1-.32.2L69,21.86a.26.26,0,0,0-.21,0l-1.28.72A.22.22,0,0,1,67.14,22.38Z"/></svg>