<?xml version="1.0" encoding="utf-8"?>
<!-- Generator: Adobe Illustrator 24.0.0, SVG Export Plug-In . SVG Version: 6.00 Build 0)  -->
<svg version="1.1" id="Layer_1" xmlns="http://www.w3.org/2000/svg" xmlns:xlink="http://www.w3.org/1999/xlink" x="0px" y="0px"
	 viewBox="0 0 24 24" style="enable-background:new 0 0 24 24;" xml:space="preserve">
<style type="text/css">
	.st0{fill:#DEE4FF;}
</style>
<path class="st0" d="M21,20V6c0-1.1-0.9-2-2-2h-2V2h-2v2H9V2H7v2H5C3.9,4,3,4.9,3,6v14c0,1.1,0.9,2,2,2h14C20.1,22,21,21.1,21,20z
	 M9,18H7v-2h2V18z M9,14H7v-2h2V14z M13,18h-2v-2h2V18z M13,14h-2v-2h2V14z M17,18h-2v-2h2V18z M17,14h-2v-2h2V14z M19,9H5V7h14V9z"
	/>
</svg>
