<?xml version="1.0" encoding="utf-8"?>
<!-- Generator: Adobe Illustrator 24.0.0, SVG Export Plug-In . SVG Version: 6.00 Build 0)  -->
<svg version="1.1" id="Layer_1" xmlns="http://www.w3.org/2000/svg" xmlns:xlink="http://www.w3.org/1999/xlink" x="0px" y="0px"
	 viewBox="0 0 400 400" style="enable-background:new 0 0 400 400;" xml:space="preserve">
<style type="text/css">
	.st0{fill:#33384D;}
</style>
<path class="st0" d="M348.5,282.8L348.5,282.8c-0.8,1.5-1.7,2.9-2.5,4.3l-13-7.5c0.9-1.4,1.7-2.9,2.5-4.3L348.5,282.8z"/>
<path class="st0" d="M287.2,346c-1.4,0.8-2.9,1.7-4.3,2.5h0l-7.5-13c1.5-0.8,2.9-1.7,4.3-2.5L287.2,346z"/>
<path class="st0" d="M124.7,335.5l-7.5,13h0c-1.5-0.8-2.9-1.7-4.3-2.5l7.5-13C121.8,333.8,123.2,334.7,124.7,335.5z"/>
<path class="st0" d="M67,279.7l-13,7.5c-0.9-1.4-1.7-2.9-2.5-4.3v0l13-7.5C65.3,276.8,66.2,278.2,67,279.7z"/>
<path class="st0" d="M67,120.3c-0.9,1.4-1.7,2.9-2.5,4.3l-13-7.5v0c0.8-1.5,1.7-2.9,2.5-4.3L67,120.3z"/>
<path class="st0" d="M124.7,64.5c-1.5,0.8-2.9,1.6-4.3,2.5l-7.5-13c1.4-0.8,2.9-1.7,4.3-2.5h0L124.7,64.5z"/>
<path class="st0" d="M287.2,54l-7.5,13c-1.4-0.9-2.9-1.7-4.3-2.5l7.5-13h0C284.3,52.3,285.7,53.2,287.2,54z"/>
<path class="st0" d="M348.5,117.2L348.5,117.2l-13,7.5c-0.8-1.5-1.6-2.9-2.5-4.3l13-7.5C346.8,114.3,347.7,115.7,348.5,117.2z"/>
<g>
	<path class="st0" d="M183.7,52.3h5.1V37.6c0-0.6,0-1.2,0.1-1.8l-3.6,3c-0.2,0.1-0.3,0.2-0.5,0.3c-0.2,0-0.3,0.1-0.5,0.1
		c-0.2,0-0.4,0-0.6-0.1c-0.2-0.1-0.3-0.2-0.4-0.3l-1.4-1.9l7.7-6.6h3.6v22.1h4.5v3.2h-14V52.3z"/>
	<path class="st0" d="M209.8,30c1.2,0,2.2,0.2,3.2,0.5c1,0.3,1.8,0.8,2.5,1.5s1.2,1.4,1.6,2.3c0.4,0.9,0.6,1.9,0.6,3
		c0,0.9-0.1,1.8-0.4,2.6c-0.3,0.8-0.6,1.6-1.1,2.3c-0.5,0.7-1,1.4-1.6,2.1c-0.6,0.7-1.3,1.4-1.9,2.1l-5.7,5.8
		c0.6-0.2,1.1-0.3,1.6-0.4c0.5-0.1,1-0.1,1.5-0.1h6.5c0.5,0,0.8,0.1,1.1,0.4c0.3,0.3,0.4,0.6,0.4,1v2.6h-17.4v-1.4
		c0-0.3,0.1-0.6,0.2-0.9c0.1-0.3,0.3-0.6,0.6-0.9l7.7-7.7c0.6-0.7,1.2-1.3,1.7-1.9s0.9-1.2,1.3-1.8c0.3-0.6,0.6-1.2,0.8-1.8
		c0.2-0.6,0.3-1.2,0.3-1.9c0-0.6-0.1-1.1-0.3-1.6c-0.2-0.5-0.4-0.8-0.8-1.2c-0.3-0.3-0.7-0.6-1.2-0.7c-0.4-0.2-1-0.2-1.5-0.2
		c-1,0-1.9,0.3-2.6,0.8c-0.7,0.5-1.1,1.2-1.4,2.1c-0.1,0.4-0.3,0.8-0.6,1c-0.3,0.2-0.6,0.3-1,0.3c-0.2,0-0.4,0-0.6-0.1l-2.3-0.4
		c0.2-1.2,0.5-2.3,1-3.2c0.5-0.9,1.1-1.7,1.9-2.3c0.8-0.6,1.6-1.1,2.6-1.4C207.7,30.2,208.7,30,209.8,30z"/>
</g>
<g>
	<path class="st0" d="M37,202.7c-0.9,0-1.7-0.2-2.6-0.5c-0.8-0.3-1.6-0.8-2.2-1.4s-1.2-1.4-1.6-2.3c-0.4-0.9-0.6-2-0.6-3.2
		c0-1.1,0.2-2.2,0.6-3.2c0.4-1,1-1.9,1.8-2.6s1.7-1.3,2.7-1.8s2.2-0.6,3.5-0.6c1.3,0,2.5,0.2,3.5,0.6c1,0.4,1.9,1,2.6,1.7
		c0.7,0.7,1.3,1.6,1.7,2.6c0.4,1,0.6,2.2,0.6,3.4c0,0.8-0.1,1.5-0.2,2.2c-0.1,0.7-0.3,1.4-0.6,2s-0.6,1.3-0.9,1.9
		c-0.4,0.6-0.7,1.2-1.2,1.8l-5.8,8.3c-0.2,0.3-0.5,0.5-0.9,0.7c-0.4,0.2-0.8,0.3-1.3,0.3h-4l7.9-9.8c0.2-0.2,0.4-0.5,0.6-0.7
		c0.2-0.2,0.3-0.5,0.5-0.7c-0.6,0.4-1.2,0.7-1.9,0.8S37.8,202.7,37,202.7z M42.9,195.1c0-0.7-0.1-1.3-0.3-1.8
		c-0.2-0.5-0.5-1-0.9-1.4c-0.4-0.4-0.8-0.7-1.4-0.9c-0.5-0.2-1.1-0.3-1.7-0.3c-0.7,0-1.2,0.1-1.8,0.3s-1,0.5-1.3,0.9
		c-0.4,0.4-0.7,0.8-0.8,1.4c-0.2,0.5-0.3,1.1-0.3,1.7c0,1.4,0.4,2.5,1.1,3.2c0.7,0.7,1.8,1.1,3.1,1.1c0.7,0,1.3-0.1,1.9-0.3
		c0.5-0.2,1-0.5,1.4-0.9c0.4-0.4,0.7-0.8,0.8-1.4S42.9,195.7,42.9,195.1z"/>
</g>
<g>
	<path class="st0" d="M201.4,353.9c1,0,1.9,0.2,2.8,0.5c0.9,0.3,1.7,0.8,2.4,1.4s1.2,1.4,1.7,2.4c0.4,0.9,0.6,2,0.6,3.3
		c0,1.2-0.2,2.3-0.6,3.3c-0.4,1-1,1.9-1.8,2.7c-0.8,0.8-1.7,1.4-2.8,1.8s-2.3,0.7-3.6,0.7c-1.4,0-2.6-0.2-3.6-0.6
		c-1.1-0.4-2-1-2.7-1.8c-0.8-0.8-1.3-1.7-1.7-2.8c-0.4-1.1-0.6-2.3-0.6-3.6c0-1.2,0.2-2.4,0.7-3.7c0.5-1.3,1.2-2.6,2.2-3.9l6-8.1
		c0.2-0.3,0.5-0.5,0.9-0.7c0.4-0.2,0.9-0.3,1.4-0.3h3.8l-7.5,9.2c-0.2,0.2-0.3,0.4-0.5,0.6s-0.3,0.4-0.4,0.5c0.5-0.2,1-0.4,1.6-0.6
		C200.1,354,200.7,353.9,201.4,353.9z M195.3,361.8c0,0.7,0.1,1.3,0.3,1.9c0.2,0.6,0.5,1.1,0.9,1.5c0.4,0.4,0.8,0.7,1.4,1
		s1.2,0.3,1.9,0.3c0.7,0,1.3-0.1,1.9-0.4c0.6-0.2,1.1-0.6,1.5-1s0.7-0.9,1-1.5c0.2-0.6,0.4-1.2,0.4-1.8c0-0.7-0.1-1.4-0.3-2
		s-0.5-1.1-0.9-1.5c-0.4-0.4-0.9-0.7-1.5-0.9s-1.2-0.3-1.9-0.3s-1.3,0.1-1.9,0.4c-0.6,0.2-1,0.6-1.4,1c-0.4,0.4-0.7,0.9-0.9,1.5
		C195.4,360.5,195.3,361.1,195.3,361.8z"/>
</g>
<g>
	<path class="st0" d="M361.9,187.1c1.2,0,2.2,0.2,3.2,0.5s1.7,0.8,2.4,1.4s1.2,1.3,1.5,2.1s0.5,1.7,0.5,2.6c0,0.8-0.1,1.5-0.3,2.1
		c-0.2,0.6-0.4,1.1-0.8,1.6c-0.3,0.5-0.8,0.8-1.3,1.2c-0.5,0.3-1.1,0.6-1.7,0.8c1.5,0.5,2.6,1.2,3.4,2.2c0.7,1,1.1,2.2,1.1,3.7
		c0,1.3-0.2,2.4-0.7,3.3c-0.5,1-1.1,1.8-1.9,2.4s-1.7,1.2-2.8,1.5c-1,0.3-2.1,0.5-3.3,0.5c-1.3,0-2.4-0.1-3.3-0.4
		c-0.9-0.3-1.8-0.7-2.5-1.3c-0.7-0.6-1.3-1.3-1.8-2.1c-0.5-0.8-0.9-1.8-1.3-2.9l1.9-0.8c0.3-0.1,0.7-0.2,1-0.2
		c0.3,0,0.6,0.1,0.8,0.2c0.2,0.1,0.4,0.3,0.6,0.6c0.2,0.4,0.4,0.8,0.7,1.2s0.6,0.7,0.9,1.1c0.4,0.3,0.8,0.6,1.2,0.8
		c0.5,0.2,1,0.3,1.7,0.3c0.7,0,1.4-0.1,1.9-0.4c0.5-0.2,1-0.6,1.4-0.9c0.4-0.4,0.6-0.8,0.8-1.3c0.2-0.5,0.3-0.9,0.3-1.4
		c0-0.6-0.1-1.2-0.2-1.7c-0.1-0.5-0.4-0.9-0.8-1.3s-1-0.6-1.8-0.8s-1.8-0.3-3.1-0.3v-3.1c1.1,0,1.9-0.1,2.6-0.3
		c0.7-0.2,1.3-0.4,1.7-0.8s0.7-0.7,0.9-1.2c0.2-0.5,0.2-1,0.2-1.5c0-1.2-0.3-2.1-1-2.7c-0.7-0.6-1.5-0.9-2.7-0.9
		c-1,0-1.9,0.3-2.6,0.8c-0.7,0.5-1.1,1.2-1.4,2.1c-0.1,0.4-0.3,0.8-0.6,1c-0.2,0.2-0.6,0.3-1,0.3c-0.2,0-0.4,0-0.6-0.1l-2.3-0.4
		c0.2-1.2,0.5-2.3,1-3.2c0.5-0.9,1.1-1.7,1.9-2.3c0.8-0.6,1.6-1.1,2.6-1.4C359.7,187.2,360.7,187.1,361.9,187.1z"/>
</g>
</svg>
