<?xml version="1.0" encoding="utf-8"?>
<!-- Generator: Adobe Illustrator 24.0.0, SVG Export Plug-In . SVG Version: 6.00 Build 0)  -->
<svg version="1.1" id="Layer_1" xmlns="http://www.w3.org/2000/svg" xmlns:xlink="http://www.w3.org/1999/xlink" x="0px" y="0px"
	 viewBox="0 0 24 24" style="enable-background:new 0 0 24 24;" xml:space="preserve">
<style type="text/css">
	.st0{fill:#DEE4FF;}
</style>
<path class="st0" d="M2.3,15.3l2,3.5c0.3,0.5,0.9,0.6,1.4,0.4l1.4-0.8c0.6,0.5,1.2,0.8,1.9,1.1V21c0,0.6,0.4,1,1,1h4
	c0.6,0,1-0.4,1-1v-1.6c0.7-0.3,1.3-0.7,1.9-1.1l1.4,0.8c0.5,0.3,1.1,0.1,1.4-0.4l2-3.5c0.3-0.5,0.1-1.1-0.4-1.4l-1.4-0.8
	C20,12.7,20,12.4,20,12s0-0.7-0.1-1.1l1.4-0.8c0.5-0.3,0.6-0.9,0.4-1.4l-2-3.5c-0.3-0.5-0.9-0.6-1.4-0.4l-1.4,0.8
	c-0.6-0.5-1.2-0.8-1.9-1.1V3c0-0.6-0.4-1-1-1h-4C9.4,2,9,2.4,9,3v1.6C8.3,4.9,7.7,5.3,7.1,5.7L5.7,4.9C5.2,4.6,4.6,4.8,4.3,5.3
	l-2,3.5c-0.3,0.5-0.1,1.1,0.4,1.4l1.4,0.8C4,11.3,4,11.6,4,12s0,0.7,0.1,1.1l-1.4,0.8C2.2,14.2,2.1,14.8,2.3,15.3z M12,8
	c2.2,0,4,1.8,4,4s-1.8,4-4,4s-4-1.8-4-4S9.8,8,12,8z"/>
</svg>
