<?xml version="1.0" encoding="utf-8"?>
<!-- Generator: Adobe Illustrator 24.0.0, SVG Export Plug-In . SVG Version: 6.00 Build 0)  -->
<svg version="1.1" id="Layer_1" xmlns="http://www.w3.org/2000/svg" xmlns:xlink="http://www.w3.org/1999/xlink" x="0px" y="0px"
	 viewBox="0 0 24 24" style="enable-background:new 0 0 24 24;" xml:space="preserve">
<style type="text/css">
	.st0{fill:#DEE4FF;}
</style>
<path class="st0" d="M4,13h6c0.6,0,1-0.4,1-1V4c0-0.6-0.4-1-1-1H4C3.4,3,3,3.4,3,4v8C3,12.6,3.4,13,4,13z M3,20c0,0.6,0.4,1,1,1h6
	c0.6,0,1-0.4,1-1v-4c0-0.6-0.4-1-1-1H4c-0.6,0-1,0.4-1,1V20z M13,20c0,0.6,0.4,1,1,1h6c0.6,0,1-0.4,1-1v-7c0-0.6-0.4-1-1-1h-6
	c-0.6,0-1,0.4-1,1V20z M14,10h6c0.6,0,1-0.4,1-1V4c0-0.6-0.4-1-1-1h-6c-0.6,0-1,0.4-1,1v5C13,9.6,13.4,10,14,10z"/>
</svg>
