<?xml version="1.0" encoding="utf-8"?>
<!-- Generator: Adobe Illustrator 24.0.0, SVG Export Plug-In . SVG Version: 6.00 Build 0)  -->
<svg version="1.1" id="Layer_1" xmlns="http://www.w3.org/2000/svg" xmlns:xlink="http://www.w3.org/1999/xlink" x="0px" y="0px"
	 viewBox="0 0 24 24" style="enable-background:new 0 0 24 24;" xml:space="preserve">
<style type="text/css">
	.st0{fill:#F5F5F5;}
</style>
<path class="st0" d="M19,2l3,3l-2.3,2.3l-3-3L19,2z"/>
<path class="st0" d="M8,16h3l7.3-7.3l-3-3L8,13V16z"/>
<path class="st0" d="M19,19H8.2H8.1C8,19,8,19,8,19H5V5h6.8l2-2H5C3.9,3,3,3.9,3,5v14c0,1.1,0.9,2,2,2h14c1.1,0,2-0.9,2-2v-8.7l-2,2
	V19z"/>
</svg>
