<?xml version="1.0" encoding="utf-8"?>
<!-- Generator: Adobe Illustrator 24.0.0, SVG Export Plug-In . SVG Version: 6.00 Build 0)  -->
<svg version="1.1" id="Layer_1" xmlns="http://www.w3.org/2000/svg" xmlns:xlink="http://www.w3.org/1999/xlink" x="0px" y="0px"
	 viewBox="0 0 1000 1000" style="enable-background:new 0 0 1000 1000;" xml:space="preserve">
<style type="text/css">
	.st0{fill:#DEE4FF;}
</style>
<g>
	<g>
		<path class="st0" d="M528.6,781c-1.1-2.8-3.1-4.5-5.8-5s-5.3,0.3-7.5,2.5c-16.1,15-35,24.7-56.7,29.2c-21.7,4.4-44.8,5.8-69.2,4.2
			c-24.5-1.7-49.2-5.8-74.2-12.5s-48.8-13.9-71.3-21.7s-42.8-15.3-60.9-22.5s-32.4-12.5-43-15.9c-1.1-0.5-1.9-1.4-2.5-2.5
			s-0.3-2.2,0.8-3.3c10.5-12.8,21.3-28.2,32.1-46.3c10.9-18.1,21.4-37.7,31.7-58.8s20.1-43.1,29.6-65.9
			c9.5-22.8,18.4-44.9,26.7-66.3c8.3-21.4,16-41.7,22.9-60.9c7-19.2,12.9-35.7,17.9-49.6c2.2-6.7,7.2-12.5,15-17.5
			c16.7-9.4,32.7-23.3,48-41.7c15.3-18.4,28.8-38.2,40.4-59.6c11.7-21.4,21.4-43.4,29.2-65.9c7.8-22.5,12.4-43.1,13.8-61.7
			s-0.6-33.8-5.8-45.4c-5.3-11.7-15.2-17.5-29.6-17.5c-9.5,0-18.8,3.2-27.9,9.6c-9.2,6.4-18.2,15-27.1,25.9
			c-8.9,10.8-17.4,23.1-25.4,36.7c-8.1,13.6-15.7,27.4-22.9,41.3c-17.2,33.3-33.3,70.9-48.4,112.6c-2.8,7.8-5.7,15.7-8.8,23.8
			c-3.1,8.1-6,16.3-8.8,24.6c-1.7,4.5-5,6.7-10,6.7c-25.6-0.5-44.9-3.9-58-10s-22.1-12.9-27.1-20.4s-7.5-14.6-7.5-21.3v-14.2
			c0-1.1,0.5-1.7,1.7-1.7c1.7,0,4.9-0.5,9.6-1.7c4.7-1.1,9.6-3.2,14.6-6.2s9.3-7.1,12.9-12.1c3.6-5,5.4-11.7,5.4-20
			c0-12.2-4.7-21.3-14.2-27.1s-19.9-7.8-31.3-5.8s-21.8,8.2-31.3,18.8S91.5,262,91.5,282.6c0,10.6,2.6,22.2,7.9,35
			s13.3,24.5,24.2,35c10.8,10.6,24.7,18.9,41.7,25s37.4,8.1,61.3,5.8c1.7,0,2.2,0.8,1.7,2.5c-2.8,7.2-7.5,20.3-14.2,39.2
			c-6.7,18.9-14.5,40.3-23.4,64.2s-18.1,49.1-27.5,75.5c-9.5,26.4-18.2,50.7-26.3,73c-8.1,22.2-15,41-20.9,56.3
			c-5.8,15.3-9,24-9.6,26.3c0,1.1-0.6,1.7-1.7,1.7c-28.4,0-50.9,4.6-67.6,13.8s-27.8,19-33.3,29.6c-5.6,10.5-5.4,20.3,0.4,29.2
			S21,808,37.1,808c11.7,0,23.5-3.3,35.5-10c11.9-6.7,23.5-16.1,34.6-28.3c2.2-1.7,5-2.5,8.3-2.5c13.9,2.2,30.9,9.5,50.9,21.7
			s42.3,25.2,66.7,38.8c24.5,13.6,50.5,25.9,78,36.7c27.5,10.9,56,16.3,85.5,16.3c32.8,0,58.5-4.3,77.1-12.9
			c18.6-8.6,32.4-18.5,41.3-29.6c8.9-11.1,13.9-22.1,15-32.9C531.4,793.9,530.8,786,528.6,781z M317.6,330.7
			c2.8-7.2,6.8-17.8,12.1-31.7c5.3-13.9,11.1-28.9,17.5-45s13.1-32.7,20-49.6s13.8-32.4,20.4-46.3c6.7-13.9,12.9-25.1,18.8-33.8
			c5.8-8.6,10.4-12.9,13.8-12.9c3.9,0,4.2,8.1,0.8,24.2c-3.3,16.1-9.6,35.6-18.8,58.4c-9.2,22.8-20.7,47-34.6,72.6
			s-29.2,47.8-45.9,66.7c-1.1,1.1-2.2,1.3-3.3,0.4C317.4,332.8,317.1,331.8,317.6,330.7z"/>
	</g>
	<g>
		<path class="st0" d="M999.8,450.6c-1.2-23.8-7.5-43.5-19.2-59.4s-30-23.8-55-23.8c-11.2,0-20.8,2.7-28.8,7.9
			c-8.1,5.3-15.8,11.8-22.9,19.6c1.1-6.1,0.5-11.5-1.7-16.3s-6.7-7.1-13.3-7.1c-6.2,0-11.3,1.7-15.4,5c-4.2,3.3-7.9,7.7-11.3,12.9
			c-3.3,5.3-6.2,10.9-8.3,16.8c-2.2,5.8-4.2,11.3-5.8,16.3c-16.9,48.7-32.8,94.6-47.7,137.8c-3.8,3.4-7.5,6.5-11.1,9.3
			c-12,9.5-22.9,16.8-32.9,21.8c13.3-24.5,23.3-50.2,30-77c6.7-26.7,8.8-51.2,6.7-73.5c-2.2-22.3-9.3-40.3-21.3-53.9
			c-12-13.7-29.9-19.9-53.8-18.8c-23.3,1.1-44.8,10.3-64.2,27.6c-19.5,17.3-36.3,38.3-50.5,63.1c-14.2,24.8-25.3,51.7-33.3,80.6
			c-1.2,4.3-2.3,8.4-3.3,12.6c-7.1,6.7-13.8,12.4-20.1,17.5c-12,9.5-22.9,16.8-32.9,21.8c13.3-24.5,23.3-50.2,30-77
			c6.7-26.7,8.8-51.2,6.7-73.5c-2.2-22.3-9.3-40.3-21.3-53.9c-12-13.7-29.9-19.9-53.8-18.8c-23.3,1.1-44.8,10.3-64.2,27.6
			c-19.5,17.3-36.3,38.3-50.5,63.1c-14.2,24.8-25.3,51.7-33.4,80.6c-8.1,29-12,55.6-11.7,79.8c0.2,24.3,5.1,44.4,14.6,60.2
			c9.4,15.9,24.4,23.3,45,22.2c22.2-1.1,43-8.3,62.5-21.8c19.4-13.3,36.9-30.3,52.5-50.9c14.4-3.3,31.4-10.8,50.9-22.6
			c5.8-3.5,12-7.8,18.3-12.8c-1,8.8-1.3,17.4-1.2,25.7c0.2,24.3,5.1,44.4,14.6,60.2c9.4,15.9,24.4,23.3,45,22.2
			c22.2-1.1,43-8.3,62.5-21.8c19.4-13.3,36.9-30.3,52.5-50.9c14.4-3.3,31.3-10.8,50.9-22.6c0.3-0.2,0.6-0.3,0.9-0.6
			c-4,11.8-7.9,23.3-11.8,34.6c-9.5,27.9-18.9,55.3-28.4,82.2c-9.5,27-17.9,51.6-25.4,74c-7.5,22.3-13.8,40.8-18.8,55.5
			s-8.1,23.8-9.2,27.1c-5,13.9-6.8,24.9-5.4,33c1.3,8.1,6.8,11.8,16.3,11.2c6.1,0,11.3-1.7,15.8-5c4.4-3.3,8-7,10.8-10.8
			c2.8-4.5,5-9.5,6.7-15.1l76.7-224.1c9.4,16.6,25,24.6,46.7,24c24.4-1.1,47.4-9.9,68.8-26.4c21.3-16.4,39.7-36.8,55-61
			s27.2-50.1,35.9-77.7C997.1,499.9,1000.9,474.3,999.8,450.6z M468.6,481.2c-4.3,17.3-10.3,35.6-17.9,55
			c-9.1,23.2-19,44.4-29.8,63.9c-0.7,1.4-1.5,2.8-2.3,4.1c-10.7,19.1-21.6,35.2-32.8,48.4c-11.9,14.2-22.9,21.5-32.9,22.1
			c-3.8,0.2-7.2-0.6-9.8-2.4c-5.7-2.3-9-8.3-9.9-18.1c-1.4-13.3,0.2-30.3,5-50.9c1.1-4.8,2.2-9.6,3.6-14.5c0.1-0.4,0.2-0.8,0.3-1.2
			c4.3-17.3,10.3-35.6,17.9-55c9.1-23.2,19-44.4,29.8-63.9c0.8-1.4,1.5-2.8,2.2-4.1c10.7-19.1,21.6-35.2,32.8-48.4
			c11.9-14.2,22.9-21.5,32.9-22.1c3.8-0.2,7.2,0.6,9.8,2.4c4.6,2.9,7.4,8.8,8.5,17.6c1.7,13.9,0.2,31.5-4.2,53
			c-0.9,4.2-1.9,8.6-3,12.9C468.8,480.4,468.7,480.8,468.6,481.2z M714.6,467c-3.2,15.6-7.9,31.9-13.9,49.3
			c-0.7,1.8-1.2,3.5-1.9,5.2c-1.7,4.8-3.5,9.7-5.4,14.7c-1.6,4.1-3.3,8.2-5,12.2c-2.4,5.9-4.9,11.6-7.5,17.2
			c-2.3,5-4.5,9.8-6.9,14.6c-0.3,0.7-0.7,1.3-1,2c-2.7,5.4-5.5,10.8-8.3,15.9c-1.1,2.1-2.2,4.1-3.3,6.1
			c-10.3,18.2-20.8,33.7-31.7,46.4c-11.8,14-22.7,21.3-32.6,22c-0.1,0.1-0.2,0.1-0.3,0.1c-1.2,0.4-2.5,0.6-3.8,0.7
			c-10,0.6-15.8-5.8-17.1-19.2c-1.4-13.3,0.2-30.3,5-50.9c3.8-16.5,9-34.1,15.6-52.9c0.6-1.8,1.2-3.5,1.9-5.3
			c1.7-4.8,3.5-9.7,5.4-14.7c0.4-1.1,0.9-2.2,1.4-3.3c1.2-3,2.4-5.9,3.6-8.8c2.4-5.8,4.9-11.6,7.5-17.2c2.3-4.9,4.6-9.8,6.9-14.6
			c0.3-0.7,0.7-1.3,1-2c2.7-5.4,5.5-10.7,8.3-15.9c1.1-2.1,2.2-4.1,3.3-6.1c10.3-18.2,20.8-33.7,31.7-46.4
			c11.8-14,22.7-21.3,32.6-22c0.1-0.2,0.2-0.2,0.3-0.1c10.5-0.6,16.7,6.1,18.3,20C720.4,428,719,445.6,714.6,467z M951.9,463.1
			c-4.2,19.9-10.7,41.5-19.6,64.8c-8.9,23.3-19.1,44.9-30.4,64.9c-11.4,19.9-23.1,36.7-35,50.3c-12,13.6-23.3,20.6-33.8,21.2
			c-10,0.6-16.2-5.8-18.3-19.1c-2.2-13.3-1.8-29.9,1.2-49.9s8.6-41.7,16.7-65.3c8-23.5,17.5-45.4,28.3-65.7
			c10.8-20.2,22.8-37.1,35.9-50.7c13-13.6,26.5-20.3,40.4-20.3c10.5,0,16.7,6.7,18.3,19.9C957.3,426.5,956,443.1,951.9,463.1z"/>
	</g>
</g>
</svg>
