<?xml version="1.0" encoding="utf-8"?>
<!-- Generator: Adobe Illustrator 24.0.0, SVG Export Plug-In . SVG Version: 6.00 Build 0)  -->
<svg version="1.1" id="Layer_1" xmlns="http://www.w3.org/2000/svg" xmlns:xlink="http://www.w3.org/1999/xlink" x="0px" y="0px"
	 viewBox="0 0 250 250" style="enable-background:new 0 0 250 250;" xml:space="preserve">
<style type="text/css">
	.st0{fill:#DEE4FF;}
</style>
<g>
	<title>smile =D</title>
	<path class="st0" d="M245.6,107.3c-0.9-9.5-5.7-18.2-14-25c-12.2-10.1-30.8-15.1-49.8-13.3l0.1,1l-0.1,0l0.6,18.3
		c-7.6-13.4-22-22.5-38.4-22.5c-18.5,0-34.3,11.4-40.9,27.5c-7.9-12.1-21.5-20.2-37-20.2c-20.4,0-37.6,13.9-42.6,32.7l-9.3-59.8
		l-9.9,1.5l18.5,118.5l9.9-1.5l-3.7-23.4c6.1,9.5,15.8,16.5,27.1,19.2c-13.7,7.5-22.4,24.6-20.6,43.6l10-0.9
		c-1.8-18.7,9-35.1,24-36.5c6.2-0.6,12.4,1.4,17.7,5.9c7.1,5.9,11.8,15.2,12.7,25.5l10-0.9v0l9.1-0.9c-1.8-18.7,9-35.1,24-36.5
		c6.2-0.6,12.4,1.4,17.7,5.9c7.1,5.9,11.8,15.2,12.7,25.5l10-0.9c-1.2-12.9-7.1-24.7-16.3-32.3c-2.9-2.4-6.1-4.4-9.5-5.7
		c11.5-3.8,21-12.1,26.1-22.9l2,60.8l10-0.3l-1.1-33.2C225.3,151.7,247.8,130.4,245.6,107.3z M66.1,151.4
		c-18.8,0-34.1-15.3-34.1-34.1s15.3-34.1,34.1-34.1c18.8,0,34.1,15.3,34.1,34.1S84.9,151.4,66.1,151.4z M108.8,190.2
		c-2.3-10.2-7.7-19.3-15.2-25.6c-3.4-2.8-7.1-5-11.1-6.3c11.1-4.5,19.9-13.3,24.4-24.3c5.7,8.8,14.4,15.4,24.7,18.4
		C118.5,158.4,109.4,173.1,108.8,190.2z M144,144.1c-18.8,0-34.1-15.3-34.1-34.1c0-18.8,15.3-34.1,34.1-34.1s34.1,15.3,34.1,34.1
		C178.1,128.8,162.8,144.1,144,144.1z M194.4,146.3l-2.3-67.6c12.9,0.5,24.8,4.5,33.1,11.3c6.2,5.1,9.8,11.5,10.5,18.2
		C237.3,125.8,219.2,142.1,194.4,146.3z"/>
	<g>
		<circle class="st0" cx="51.1" cy="104.9" r="7.4"/>
	</g>
	<g>
		<circle class="st0" cx="78.1" cy="101.9" r="7.4"/>
	</g>
	<g>
		<path class="st0" d="M83.8,136.8c-3.7,4.5-9,7.2-14.7,7.8c-0.7,0.1-1.4,0.1-2.1,0.1c-5,0-9.9-1.7-13.8-5c-4.5-3.7-7.2-9-7.8-14.7
			l5-0.5l5-0.5l23.5-2.2l5-0.5l5-0.5C89.3,126.7,87.5,132.3,83.8,136.8z"/>
	</g>
	<g>
		
			<ellipse transform="matrix(0.1602 -0.9871 0.9871 0.1602 11.1764 209.2662)" class="st0" cx="128.6" cy="98.1" rx="7.4" ry="7.4"/>
	</g>
	<g>
		
			<ellipse transform="matrix(0.1602 -0.9871 0.9871 0.1602 36.8127 233.3981)" class="st0" cx="155.6" cy="95.1" rx="7.4" ry="7.4"/>
	</g>
	<g>
		<path class="st0" d="M146.4,137.9c-0.6,0.1-1.3,0.1-1.9,0.1c-11.2,0-20.7-8.6-21.7-19.9l5-0.4l33.4-3.2l5-0.5l0,0.4
			C167.3,126.3,158.4,136.9,146.4,137.9z"/>
	</g>
</g>
</svg>
